<mxfile host="app.diagrams.net" modified="2023-05-20T09:39:16.959Z" agent="Mozilla/5.0 (Macintosh; Intel Mac OS X 10_15_7) AppleWebKit/537.36 (KHTML, like Gecko) Chrome/112.0.0.0 Safari/537.36" etag="uQLGU-KfxRQ0tsL0pSST" version="21.2.2" type="github">
  <diagram id="aGM87K8MSJwRIKbYJJJs" name="Page-1">
    <mxGraphModel dx="954" dy="450" grid="1" gridSize="10" guides="1" tooltips="1" connect="1" arrows="1" fold="1" page="1" pageScale="1" pageWidth="827" pageHeight="1169" math="0" shadow="0">
      <root>
        <mxCell id="0" />
        <mxCell id="1" parent="0" />
        <mxCell id="3jtRCFZpZbcKJZTfRhQ5-1" value="" style="endArrow=none;html=1;rounded=0;sketch=1;" parent="1" edge="1">
          <mxGeometry width="50" height="50" relative="1" as="geometry">
            <mxPoint x="360" y="360" as="sourcePoint" />
            <mxPoint x="360" y="160" as="targetPoint" />
          </mxGeometry>
        </mxCell>
        <mxCell id="3jtRCFZpZbcKJZTfRhQ5-2" value="" style="endArrow=none;html=1;rounded=0;sketch=1;" parent="1" edge="1">
          <mxGeometry width="50" height="50" relative="1" as="geometry">
            <mxPoint x="440" y="360" as="sourcePoint" />
            <mxPoint x="440" y="160" as="targetPoint" />
          </mxGeometry>
        </mxCell>
        <mxCell id="3jtRCFZpZbcKJZTfRhQ5-3" value="" style="ellipse;whiteSpace=wrap;html=1;aspect=fixed;sketch=1;" parent="1" vertex="1">
          <mxGeometry x="380" y="170" width="40" height="40" as="geometry" />
        </mxCell>
        <mxCell id="3jtRCFZpZbcKJZTfRhQ5-5" value="" style="ellipse;whiteSpace=wrap;html=1;aspect=fixed;sketch=1;" parent="1" vertex="1">
          <mxGeometry x="380" y="230" width="40" height="40" as="geometry" />
        </mxCell>
        <mxCell id="3jtRCFZpZbcKJZTfRhQ5-6" value="" style="ellipse;whiteSpace=wrap;html=1;aspect=fixed;sketch=1;" parent="1" vertex="1">
          <mxGeometry x="380" y="290" width="40" height="40" as="geometry" />
        </mxCell>
        <mxCell id="3jtRCFZpZbcKJZTfRhQ5-7" value="" style="endArrow=classic;html=1;rounded=0;sketch=1;edgeStyle=orthogonalEdgeStyle;curved=1;" parent="1" edge="1">
          <mxGeometry width="50" height="50" relative="1" as="geometry">
            <mxPoint x="330" y="100" as="sourcePoint" />
            <mxPoint x="390" y="160" as="targetPoint" />
          </mxGeometry>
        </mxCell>
        <mxCell id="3jtRCFZpZbcKJZTfRhQ5-9" value="" style="endArrow=classic;html=1;rounded=0;sketch=1;edgeStyle=orthogonalEdgeStyle;curved=1;" parent="1" edge="1">
          <mxGeometry width="50" height="50" relative="1" as="geometry">
            <mxPoint x="410" y="160" as="sourcePoint" />
            <mxPoint x="470" y="100" as="targetPoint" />
            <Array as="points">
              <mxPoint x="410" y="100" />
            </Array>
          </mxGeometry>
        </mxCell>
      </root>
    </mxGraphModel>
  </diagram>
</mxfile>
